<svg xmlns="http://www.w3.org/2000/svg"><symbol id="icon-chevron" viewBox="0 0 13 8"><path d="m1 .75 5.5 5.5L12 .75" stroke-width="1.5" stroke-linecap="round"/></symbol><symbol class="test" id="icon-circle-path-group" viewBox="0 0 165 165"><path d="M153.498 85.958c-.153 1.409.161 2.156.94 2.24.734.08 1.163-.451 1.287-1.593.037-.35.04-.67.008-.962a7.385 7.385 0 0 0-.259-1.163l.96-.301c.261.807.342 1.666.244 2.577-.093.856-.343 1.512-.75 1.968-.402.456-.907.651-1.514.585-.834-.09-1.329-.614-1.487-1.57l-.054-.006c-.23.552-.515.943-.856 1.172-.337.23-.738.319-1.205.268-.689-.074-1.195-.411-1.52-1.01-.321-.594-.428-1.38-.322-2.359.116-1.074.367-1.886.752-2.435l1.033.112a5.89 5.89 0 0 0-.857 2.451c-.071.653-.013 1.156.173 1.51.19.36.496.564.918.61.865.093 1.374-.565 1.527-1.974l.112-1.033.958.104-.088.809Zm-5.773 10.065 1.089.029.013-.054c-.37-.472-.593-.91-.671-1.312-.074-.397-.046-.866.083-1.407.172-.723.494-1.246.965-1.57.469-.318 1.048-.396 1.735-.232 1.472.352 1.962 1.712 1.471 4.083l-.255 1.246.452.108c.572.137 1.023.113 1.352-.07.333-.179.564-.538.693-1.079.145-.607.123-1.339-.066-2.195l.925-.137c.11.405.169.834.178 1.286.008.457-.039.9-.141 1.33-.208.869-.554 1.465-1.039 1.79-.486.33-1.155.392-2.006.19l-4.974-1.188.196-.818Zm1.373-2.307c-.164.687-.105 1.27.179 1.75.283.485.763.808 1.441.97l.659.157.217-1.115c.178-.885.192-1.552.041-2-.147-.443-.476-.725-.986-.847-.399-.095-.731-.048-.996.142-.267.194-.452.508-.555.943Zm-2.375 10.842.498.448.622.592 3.718 3.837-.577 1.322-6.854-2.99.401-.921 5.671 2.474-.309-.284-.8-.782-3.575-3.67.38-.871 5.135.129c.656.023 1.159.061 1.509.114l-5.671-2.473.405-.928 6.854 2.99-.554 1.272-5.14-.101a17.428 17.428 0 0 1-1.713-.158Zm-3.95 14.241c-1.038-.644-1.687-1.409-1.947-2.295-.256-.883-.098-1.785.474-2.707.354-.569.801-.991 1.342-1.267a3.118 3.118 0 0 1 1.785-.308c.648.07 1.307.313 1.977.729 1.038.644 1.684 1.405 1.939 2.282.258.879.101 1.78-.471 2.701-.553.891-1.288 1.413-2.204 1.568-.92.159-1.885-.075-2.895-.703Zm3.011-4.849c-.813-.505-1.534-.727-2.162-.666-.627.061-1.137.407-1.529 1.038-.392.631-.478 1.24-.258 1.827.222.594.741 1.144 1.558 1.651.809.503 1.525.719 2.148.65.623-.063 1.134-.414 1.53-1.053.392-.631.481-1.236.266-1.815-.215-.578-.732-1.122-1.553-1.632Zm-6.849 13.628c-.38-.307-.58-.65-.6-1.03-.02-.374.095-.785.346-1.233l-.048-.038c-.469.441-.906.685-1.313.732-.409.049-.811-.085-1.204-.403-.542-.438-.799-.976-.769-1.615.027-.634.35-1.335.969-2.1l2.076-2.567 5.825 4.71-2.067 2.557c-1.169 1.446-2.241 1.775-3.215.987Zm-2.047-2.807c.315.255.641.32.978.193.337-.12.729-.456 1.176-1.009l1.294-1.6-1.919-1.552-1.311 1.622c-.822 1.017-.895 1.799-.218 2.346Zm2.658 1.877c.283.229.572.281.867.156.295-.119.622-.4.98-.842l1.346-1.664-1.643-1.328-1.208 1.493c-.441.546-.685.985-.73 1.317-.046.332.083.622.388.868Zm-1.982 5.883-3.235-3.479-.813-.944-.25-.299 1.379 7.436-1.036.964-5.102-5.487.776-.721 3.119 3.354.599.674.58.675-1.374-7.422 1.036-.964 5.102 5.487-.781.726Zm-11.47 8.77 1.958-1.446-3.875-5.246.913-.674 3.874 5.246 1.936-1.43.577.781-4.806 3.549-.577-.78Zm-2.957 3.621-2.249-4.185-.547-1.119-.166-.353-.549 7.543-1.247.67-3.546-6.6.934-.502 2.167 4.035.409.805.391.799.549-7.528 1.247-.67 3.546 6.6-.939.505Zm-15.943-.059 1.089-.322 2.123 7.185-6.031 1.783-2.124-7.185 1.102-.326 1.844 6.241 3.842-1.135-1.845-6.241Zm-11.56 3.152a3.312 3.312 0 0 1 1.364.074c.423.123.796.351 1.12.682l.081-.012a10.058 10.058 0 0 1-.258-1.22l-.437-3.051 1.123-.162 1.542 10.746-.914.131-.301-.993-.054.008c-.23.447-.525.789-.882 1.024-.358.236-.785.389-1.28.46-.984.141-1.79-.086-2.42-.682-.632-.595-1.036-1.499-1.21-2.713-.175-1.218-.038-2.204.41-2.959.446-.75 1.15-1.194 2.116-1.333Zm1.129 6.71c.757-.109 1.275-.397 1.554-.865.278-.468.356-1.161.233-2.078l-.036-.25c-.15-1.042-.43-1.764-.842-2.165-.412-.397-1-.54-1.768-.43-.64.091-1.104.423-1.39.993-.291.571-.371 1.313-.24 2.224.132.925.417 1.607.852 2.046.433.444.978.619 1.637.525Zm-13.927-1.564c.004-1.222.316-2.175.934-2.861.618-.681 1.469-1.02 2.553-1.016.67.003 1.264.162 1.783.479.518.316.917.769 1.198 1.358.28.589.418 1.278.415 2.066-.004 1.222-.313 2.171-.927 2.847-.613.681-1.462 1.02-2.546 1.016-1.049-.004-1.879-.356-2.492-1.056-.617-.699-.923-1.644-.918-2.833Zm5.708.022c.003-.957-.185-1.687-.566-2.19-.381-.503-.943-.756-1.686-.759-.743-.002-1.306.244-1.691.739-.39.5-.586 1.231-.59 2.192-.003.953.188 1.676.573 2.169.381.499.947.749 1.7.752.742.003 1.304-.239 1.684-.725.38-.486.572-1.212.576-2.178Zm-11.671-4.03c1.098.14 1.923.586 2.475 1.336.547.75.745 1.72.593 2.908-.153 1.198-.569 2.112-1.246 2.742-.683.63-1.521.881-2.516.754-.93-.119-1.628-.521-2.092-1.205-.465-.679-.633-1.521-.504-2.525l.09-.712 5.12.655c.089-.875-.046-1.566-.404-2.071-.362-.506-.923-.807-1.683-.904a6.032 6.032 0 0 0-2.437.198l.128-1.003c.42-.121.813-.195 1.18-.222a6.161 6.161 0 0 1 1.296.049Zm-.56 6.799c.597.076 1.099-.057 1.506-.4.402-.344.679-.855.83-1.534l-3.886-.497c-.09.71-.001 1.273.267 1.688.268.42.696.668 1.284.743Zm-11.253-.983-1.204-.316 4.047-2.675-2.4-4.639 1.283.337 2.341 4.539.965-3.67 1.097.289-1.905 7.246-1.097-.289.926-3.523-4.053 2.701Zm-9.012-3.787 2.272.872 2.337-6.088 1.06.406-2.337 6.089 2.246.862-.348.906-5.578-2.141.348-.906Zm-11.206-7.724c-1.164-.809-1.97-.891-2.417-.247-.421.606-.16 1.237.783 1.892.289.2.569.356.841.467.272.112.654.221 1.145.329l-.195.988a6.142 6.142 0 0 1-2.38-1.019c-.707-.492-1.163-1.025-1.369-1.6-.208-.572-.137-1.108.21-1.61.48-.689 1.176-.873 2.092-.554l.03-.045c-.375-.466-.581-.903-.619-1.312-.04-.406.073-.801.341-1.187.395-.569.933-.852 1.615-.851.675.003 1.417.285 2.225.846.887.616 1.48 1.225 1.778 1.826l-.592.853c-.462-.797-1.042-1.439-1.742-1.925-.54-.374-1.01-.565-1.41-.571-.407-.005-.731.166-.973.514-.497.715-.163 1.477 1.001 2.285l.854.593-.55.792-.668-.464Zm-6.113-9.924-.547.942.04.037c.592-.098 1.083-.084 1.474.041.384.126.782.375 1.194.748.552.498.856 1.031.914 1.599.055.565-.155 1.11-.628 1.634-1.014 1.123-2.444.9-4.288-.668l-.971-.821-.312.345c-.394.436-.59.843-.586 1.22-.004.378.2.753.614 1.126.463.418 1.115.749 1.957.994l-.323.878a5.352 5.352 0 0 1-1.214-.461 5.315 5.315 0 0 1-1.099-.762c-.663-.599-1.02-1.189-1.073-1.77-.055-.585.21-1.202.797-1.851l3.427-3.795.624.564Zm1.366 2.312c-.524-.474-1.065-.701-1.622-.683-.56.016-1.075.283-1.542.8l-.453.502.874.725c.69.581 1.27.913 1.735.996.459.083.864-.07 1.215-.459.275-.304.393-.618.354-.942-.042-.327-.23-.64-.56-.939Zm-8.255-7.155-.63.226-.816.266-5.142 1.455-.89-1.135 5.883-4.617.62.79-4.866 3.82.396-.138 1.067-.333 4.927-1.407.587.747-2.549 4.459c-.331.567-.603.992-.816 1.275l4.867-3.819.625.796-5.884 4.617-.856-1.092 2.526-4.477c.273-.463.59-.941.952-1.433Zm-10.623-10.174c1.058-.609 2.04-.819 2.943-.629.899.192 1.62.758 2.16 1.697.335.581.496 1.175.482 1.782a3.113 3.113 0 0 1-.572 1.718c-.369.538-.894 1.004-1.578 1.398-1.058.609-2.034.819-2.927.629-.897-.188-1.616-.752-2.158-1.692-.523-.909-.636-1.803-.338-2.684.294-.886.957-1.625 1.988-2.219Zm2.849 4.947c.829-.478 1.365-1.008 1.609-1.59.243-.581.18-1.194-.191-1.838-.371-.644-.867-1.007-1.489-1.091-.628-.086-1.358.111-2.191.591-.826.476-1.355 1.004-1.588 1.585-.24.58-.172 1.196.204 1.847.37.644.861 1.008 1.473 1.092.611.085 1.335-.114 2.173-.596Zm-8.831-12.646c.45-.186.848-.198 1.192-.034.338.161.644.458.917.892l.057-.023c-.164-.623-.17-1.124-.016-1.503.152-.384.462-.672.93-.866.643-.267 1.239-.235 1.785.097.545.326 1.006.944 1.382 1.854l1.264 3.05-6.922 2.867-1.258-3.037c-.712-1.718-.489-2.817.67-3.297Zm3.444-.457c-.375.156-.587.411-.637.767-.056.354.052.859.324 1.516l.788 1.901 2.28-.944-.798-1.927c-.5-1.208-1.153-1.646-1.957-1.313ZM15.76 111.8c-.337.139-.52.368-.551.687-.037.316.053.737.271 1.263l.82 1.977 1.95-.808-.734-1.775c-.269-.648-.538-1.072-.808-1.271-.27-.199-.586-.223-.948-.073Zm-4.23-4.512 4.605-1.173 1.217-.261.383-.076-7.188-2.352-.35-1.371 7.26-1.85.262 1.027-4.438 1.13-.88.203-.87.187 7.174 2.348.35 1.372-7.261 1.849-.263-1.033ZM9.334 93.139l.337 2.41 6.459-.901.157 1.123-6.46.902.333 2.383-.961.134-.826-5.917.961-.134Zm-1.797-4.653 4.75.037 1.245.057.39.024L7.567 84.5l.01-1.415 7.493.058-.008 1.06-4.58-.036-.903-.027-.888-.041 6.34 4.096-.011 1.415-7.492-.058.008-1.067Zm7.659-13.803-.238 1.11-7.325-1.573 1.32-6.149 7.325 1.572-.241 1.123-6.363-1.365-.84 3.916 6.362 1.366Zm2.726-11.627a3.3 3.3 0 0 1-.716 1.163c-.31.313-.688.532-1.133.659l-.03.077c.43.1.829.22 1.196.355l2.89 1.073-.394 1.064L9.557 63.67l.321-.865 1.016.21.02-.052c-.284-.416-.444-.838-.48-1.264-.036-.427.033-.875.207-1.345.346-.932.93-1.531 1.754-1.8.825-.272 1.813-.195 2.962.232 1.154.428 1.955 1.019 2.404 1.774.447.749.5 1.58.161 2.495Zm-6.434-2.212c-.266.718-.26 1.31.018 1.778.279.468.85.867 1.714 1.198l.237.088c.987.366 1.756.464 2.305.293.545-.172.952-.621 1.222-1.348.225-.606.155-1.172-.21-1.696-.363-.528-.976-.952-1.839-1.273-.876-.325-1.61-.4-2.205-.227-.597.167-1.01.563-1.242 1.187Zm7.948-11.379c1.072.586 1.762 1.314 2.07 2.184.305.867.198 1.777-.323 2.729-.321.587-.744 1.034-1.27 1.339a3.112 3.112 0 0 1-1.765.406c-.65-.034-1.322-.24-2.014-.619-1.072-.586-1.759-1.31-2.062-2.17-.306-.865-.2-1.772.32-2.724.504-.92 1.209-1.482 2.115-1.687.91-.21 1.886-.029 2.93.542Zm-2.738 5.008c.84.459 1.571.64 2.195.546.623-.096 1.113-.47 1.47-1.121.356-.652.408-1.265.156-1.84-.254-.58-.803-1.1-1.647-1.562-.835-.457-1.562-.633-2.18-.53-.62.098-1.11.477-1.47 1.136-.356.652-.412 1.26-.165 1.827.246.566.793 1.08 1.641 1.544Zm8.976-8.178c-.648.898-1.434 1.41-2.357 1.536-.92.123-1.866-.167-2.838-.868-.979-.707-1.584-1.509-1.813-2.405-.227-.9-.047-1.757.54-2.57.549-.761 1.235-1.182 2.058-1.263.819-.083 1.638.172 2.459.764l.582.42-3.021 4.185c.726.496 1.397.707 2.012.634.617-.077 1.15-.426 1.599-1.046a6.04 6.04 0 0 0 .99-2.236l.82.592a5.801 5.801 0 0 1-.369 1.142 6.164 6.164 0 0 1-.662 1.115Zm-5.706-3.74c-.352.488-.475.993-.368 1.514.11.518.427 1.005.951 1.462l2.293-3.176c-.58-.418-1.117-.61-1.61-.572-.497.035-.92.292-1.266.773Zm6.259-9.49.85-.908.43 4.831 5.22.096-.906.967-5.105-.099 2.769 2.594-.776.828-5.468-5.121.776-.829 2.659 2.491-.45-4.85Zm7.483-6.037-1.847 1.585 4.246 4.95-.861.738-4.246-4.95-1.827 1.568-.632-.737 4.535-3.89.632.736Zm12.087-6.268c1.263-.644 1.717-1.314 1.361-2.013-.335-.658-1.014-.726-2.037-.205a4.413 4.413 0 0 0-.81.519 7.316 7.316 0 0 0-.831.853l-.778-.64a6.141 6.141 0 0 1 2.024-1.613c.768-.39 1.453-.54 2.057-.449.602.087 1.042.403 1.319.948.38.747.213 1.448-.502 2.103l.025.05c.588-.111 1.071-.086 1.45.074.376.157.67.444.883.862.314.618.31 1.226-.014 1.826-.322.593-.922 1.113-1.799 1.56-.963.49-1.78.723-2.45.702l-.471-.926c.92-.03 1.761-.237 2.52-.624.585-.297.975-.621 1.17-.971.198-.356.2-.723.008-1.1-.395-.777-1.224-.843-2.487-.2l-.926.471-.437-.859.725-.369Zm11.946-.834-.568-.93-.052.019c-.196.567-.441.992-.737 1.276-.294.278-.702.51-1.227.695-.7.248-1.313.262-1.84.043-.524-.221-.903-.665-1.139-1.33-.505-1.427.371-2.578 2.628-3.455l1.185-.463-.155-.438c-.196-.554-.46-.92-.794-1.096-.33-.183-.758-.182-1.282.004-.589.208-1.19.624-1.806 1.248l-.619-.702a5.34 5.34 0 0 1 .984-.848 5.294 5.294 0 0 1 1.193-.604c.842-.298 1.531-.332 2.067-.1.54.229.957.756 1.249 1.58l1.706 4.82-.793.281Zm-2.683.102c.666-.236 1.123-.603 1.372-1.102.253-.5.263-1.08.03-1.737l-.225-.638-1.054.424c-.84.33-1.407.682-1.702 1.052-.291.364-.35.793-.175 1.287.137.387.357.64.66.76.308.118.673.103 1.094-.046Zm10.168-3.856.104-.662.157-.844 1.188-5.21L68.1 9.22l1.232 7.376-.991.166-1.02-6.102-.07.413-.218 1.097-1.126 4.998-.938.157-2.692-4.374a14.045 14.045 0 0 1-.727-1.327l1.02 6.102-.999.166-1.232-7.376 1.369-.229 2.718 4.363c.276.463.543.97.802 1.523Zm14.061-4.475c.028 1.22-.258 2.182-.857 2.884-.599.698-1.44 1.06-2.525 1.085-.67.015-1.268-.128-1.795-.43a3.113 3.113 0 0 1-1.234-1.326c-.296-.581-.453-1.266-.471-2.054-.029-1.221.255-2.178.85-2.871.594-.698 1.434-1.06 2.518-1.084 1.048-.024 1.887.305 2.519.988.635.682.967 1.618.995 2.808Zm-5.707.132c.022.956.23 1.68.625 2.173.394.493.963.73 1.705.713.743-.017 1.3-.279 1.671-.784.376-.51.552-1.246.53-2.207-.022-.953-.232-1.67-.631-2.153-.394-.488-.967-.723-1.719-.706-.743.017-1.297.274-1.664.77-.367.497-.54 1.228-.517 2.194Zm15.23-1.734c-.05.485-.23.84-.537 1.064-.303.22-.71.347-1.222.381l-.007.061c.626.153 1.069.387 1.33.703.264.316.37.726.318 1.229-.073.693-.385 1.201-.936 1.524-.547.323-1.31.434-2.29.331l-3.283-.343.778-7.451 3.27.341c1.85.194 2.71.913 2.58 2.16Zm-1.24 3.245c.043-.403-.08-.712-.37-.925-.284-.218-.78-.363-1.487-.437l-2.046-.214-.257 2.454 2.074.217c1.3.136 1.996-.23 2.087-1.095Zm.127-3.251c.038-.363-.075-.634-.34-.813-.261-.183-.675-.304-1.241-.363l-2.128-.222-.22 2.1 1.91.2c.699.073 1.2.038 1.503-.104.304-.143.476-.409.516-.798Zm6.3-1.535-1.173 4.604-.353 1.194-.117.372 5.505-5.186 1.371.349-1.85 7.26-1.026-.261 1.13-4.439.243-.869.253-.853-5.495 5.175-1.371-.35 1.85-7.26 1.033.264Zm13.237 4.745-2.279-.855-2.291 6.105-1.062-.398 2.291-6.106-2.253-.845.341-.91 5.594 2.1-.341.909Zm4.852.571-2.294 4.16-.643 1.067-.207.331 6.634-3.632 1.239.683-3.619 6.56-.928-.511 2.213-4.01.453-.78.46-.762-6.621 3.623-1.239-.683 3.619-6.56.933.515Zm8.554 13.339-.862-.74 4.879-5.686 4.773 4.095-4.878 5.687-.872-.748 4.237-4.94-3.04-2.608-4.237 4.94Zm8.935 7.947a3.313 3.313 0 0 1-.683-1.184 2.547 2.547 0 0 1-.04-1.31l-.054-.062c-.293.33-.587.624-.881.882l-2.318 2.033-.749-.853 8.162-7.158.608.694-.667.794.036.041c.501-.05.947.01 1.34.18.392.171.754.445 1.084.822.655.747.905 1.547.749 2.399-.153.855-.69 1.687-1.612 2.495-.925.812-1.826 1.235-2.704 1.272-.871.036-1.628-.312-2.271-1.045Zm5.006-4.609c-.505-.575-1.03-.852-1.574-.83-.544.023-1.167.336-1.868.94l-.19.166c-.792.694-1.243 1.323-1.354 1.888-.108.56.093 1.133.604 1.715.427.487.958.694 1.592.623.637-.068 1.302-.406 1.994-1.013.703-.616 1.119-1.226 1.249-1.831.136-.605-.015-1.157-.453-1.658Zm6.171 12.29c-1.024.667-1.991.931-2.904.791-.908-.142-1.659-.667-2.251-1.576-.366-.56-.559-1.145-.579-1.752a3.1 3.1 0 0 1 .477-1.747c.338-.558.837-1.052 1.498-1.482 1.023-.667 1.986-.93 2.888-.79.906.139 1.655.662 2.248 1.57.572.879.734 1.766.486 2.662-.246.9-.867 1.675-1.863 2.325Zm-3.117-4.781c-.802.522-1.308 1.08-1.519 1.675-.211.595-.114 1.203.292 1.825.405.623.921.959 1.546 1.008.632.05 1.35-.186 2.156-.712.798-.52 1.297-1.076 1.498-1.67.207-.592.105-1.203-.306-1.833-.405-.622-.916-.958-1.531-1.009-.615-.05-1.327.188-2.136.716Zm3.165 12.149c-.481-.998-.556-1.932-.227-2.804.331-.867 1.037-1.56 2.117-2.08 1.088-.524 2.081-.673 2.978-.448.9.23 1.567.796 2.002 1.7.407.846.45 1.65.128 2.41-.317.76-.931 1.36-1.843 1.798l-.647.312-2.238-4.651c-.783.402-1.288.89-1.517 1.466-.227.58-.174 1.214.158 1.904a6.019 6.019 0 0 0 1.493 1.937l-.912.438a5.802 5.802 0 0 1-.827-.868 6.137 6.137 0 0 1-.665-1.114Zm6.007-3.233c-.26-.542-.645-.89-1.155-1.044-.507-.15-1.087-.104-1.738.138l1.698 3.53c.645-.31 1.068-.691 1.271-1.143.207-.453.181-.947-.076-1.48Zm5.298 9.898.393 1.18-4.452-1.925-2.572 4.545-.419-1.259 2.52-4.44-3.599 1.197-.359-1.076 7.109-2.367.358 1.077-3.457 1.15 4.478 1.918Zm1.739 9.497-.511-2.38-6.376 1.369-.238-1.11 6.376-1.368-.505-2.353.949-.204 1.254 5.842-.949.204Z"/></symbol><symbol id="icon-close" viewBox="0 0 24 24"><path fill-rule="evenodd" clip-rule="evenodd" d="M22.235.303a1.034 1.034 0 0 1 1.462 1.462L13.462 12l10.235 10.235a1.034 1.034 0 0 1-1.462 1.462L12 13.462 1.765 23.697a1.034 1.034 0 1 1-1.462-1.462L10.538 12 .303 1.765A1.034 1.034 0 0 1 1.765.303L12 10.538 22.235.303Z"/></symbol><symbol id="icon-logo" viewBox="0 0 58 40"><g clip-path="url(#a)"><path d="M.9 40 18.3 0h.832l17.166 40h-4.3L18.703 9.1 5.283 40H.9Z"/><path d="M38.823 0h.78L57.1 40h-4.375L39.209 9.08 25.942 40h-4.335L38.823 0Z"/></g><defs><clipPath id="a"><path transform="translate(.893)" d="M0 0h56.215v40H0z"/></clipPath></defs></symbol></svg>