<svg width="21" height="21" viewBox="0 0 21 21" fill="none" xmlns="http://www.w3.org/2000/svg">
<path d="M1.125 4.6084V16.1709H6.71094C7.22852 16.1709 10.793 16.0659 10.793 12.8115C10.793 10.7778 9.39404 10.0869 8.68359 9.88184C9.20605 9.63525 10.2461 9.04932 10.2461 7.47949C10.2461 6.60547 10.1216 4.6084 6.55469 4.6084H1.125ZM13.8594 5.68262V6.7373H18.1758V5.68262H13.8594ZM3.66406 6.58105H6.04687C6.27148 6.58105 7.78516 6.46143 7.78516 7.90918C7.78516 9.14697 6.69141 9.27637 6.24219 9.27637H3.66406V6.58105ZM16.125 7.69434C12.8608 7.69434 12.1797 10.5288 12.1797 11.7568C12.1797 15.4019 15.168 15.8193 16.125 15.8193C18.7056 15.8193 19.438 14.1494 19.7383 13.2217H17.8633C17.79 13.4609 17.2432 14.2373 16.2031 14.2373C14.46 14.2373 14.3086 12.875 14.3086 12.2646H19.8555C19.9678 10.1553 19.0449 7.69434 16.125 7.69434ZM16.0664 9.27637C16.5864 9.27637 17.0063 9.42773 17.2578 9.70605C17.5093 9.98682 17.6948 10.397 17.7461 10.9365H14.3086C14.3184 10.7876 14.3525 10.6167 14.4062 10.4287C14.46 10.2358 14.543 10.0527 14.6797 9.88184C14.8164 9.71338 15.0068 9.56689 15.2266 9.45215C15.4512 9.33496 15.7295 9.27637 16.0664 9.27637ZM3.66406 11.0146H6.41797C6.96484 11.0146 8.25391 11.1001 8.25391 12.6748C8.25391 14.2007 6.63037 14.1982 6.37891 14.1982H3.66406V11.0146Z" fill="black"/>
</svg>
