<svg width="26" height="26" viewBox="0 0 26 26" fill="none" xmlns="http://www.w3.org/2000/svg">
<path d="M2.52722 0.199951C1.24141 0.199951 0.199951 1.24141 0.199951 2.52722V23.4727C0.199951 24.7585 1.24141 25.8 2.52722 25.8H23.4727C24.7585 25.8 25.8 24.7585 25.8 23.4727V2.52722C25.8 1.24141 24.7585 0.199951 23.4727 0.199951H2.52722ZM15.909 8.34541H18.884C19.2052 8.34541 19.4659 8.60606 19.4659 8.92722C19.4659 9.24839 19.2052 9.50904 18.884 9.50904H15.909C15.5879 9.50904 15.3272 9.24839 15.3272 8.92722C15.3272 8.60606 15.5879 8.34541 15.909 8.34541ZM5.92495 8.79313H9.16586C11.0789 8.79313 12.2204 9.72902 12.2204 11.2522C12.2204 12.2972 11.4475 13.2089 10.4363 13.359V13.4818C11.7419 13.5772 12.6909 14.5611 12.6909 15.8318C12.692 17.5598 11.3868 18.6545 9.28177 18.6545H5.92495C5.33382 18.6545 4.8545 18.1752 4.8545 17.584V9.86359C4.8545 9.27246 5.33382 8.79313 5.92495 8.79313ZM6.91813 10.3704V12.8795H8.46813C9.5829 12.8807 10.1909 12.4219 10.1909 11.6295C10.1909 10.844 9.6253 10.3704 8.64086 10.3704H6.91813ZM17.6113 10.9522C19.8327 10.9522 21.1431 12.3678 21.1431 14.759V15.3659H15.9727V15.4681C15.9994 16.5887 16.6563 17.2863 17.6954 17.2863C18.4809 17.2863 19.02 17.0071 19.2318 16.509H21.084C20.7838 17.931 19.4841 18.8181 17.6386 18.8181C15.3427 18.8181 13.9909 17.3686 13.9909 14.9227C13.9909 12.4697 15.3702 10.9522 17.6113 10.9522ZM17.6204 12.4772C16.6976 12.4772 16.047 13.118 15.9795 14.0954H19.1909C19.149 13.0982 18.549 12.4772 17.6204 12.4772ZM6.91813 14.275V17.0772H8.75677C9.94601 17.0772 10.5886 16.5761 10.5886 15.6545C10.5886 14.7515 9.92504 14.275 8.70904 14.275H6.91813Z" fill="#1C202C"/>
</svg>
