<svg width="165" height="165" class="test" viewBox="0 0 165 165" fill="none" xmlns="http://www.w3.org/2000/svg">
<path d="M153.498 85.9578C153.345 87.3668 153.659 88.1136 154.438 88.1981C155.172 88.2776 155.601 87.7465 155.725 86.6047C155.762 86.2559 155.765 85.9353 155.733 85.643C155.7 85.3506 155.614 84.9631 155.474 84.4803L156.434 84.1788C156.695 84.9863 156.776 85.8455 156.678 86.7561C156.585 87.6125 156.335 88.2684 155.928 88.7239C155.526 89.18 155.021 89.3751 154.414 89.3093C153.58 89.219 153.085 88.6954 152.927 87.7386L152.873 87.7328C152.643 88.2855 152.358 88.6763 152.017 88.9052C151.68 89.1346 151.279 89.224 150.812 89.1734C150.123 89.0988 149.617 88.762 149.292 88.163C148.971 87.569 148.864 86.7826 148.97 85.804C149.086 84.7302 149.337 83.9185 149.722 83.3689L150.755 83.4808C150.275 84.2677 149.99 85.0848 149.898 85.9321C149.827 86.5845 149.885 87.0881 150.071 87.4429C150.261 87.8028 150.567 88.0055 150.989 88.0512C151.854 88.1449 152.363 87.4873 152.516 86.0782L152.628 85.0452L153.586 85.149L153.498 85.9578Z" fill="#6F7279"/>
<path d="M147.725 96.0234L148.814 96.0515L148.827 95.9983C148.457 95.5259 148.234 95.0883 148.156 94.6857C148.082 94.2886 148.11 93.8196 148.239 93.2788C148.411 92.5562 148.733 92.0332 149.204 91.7098C149.673 91.3909 150.252 91.3134 150.939 91.4773C152.411 91.8285 152.901 93.1895 152.41 95.5602L152.155 96.8065L152.607 96.9144C153.179 97.0509 153.63 97.0272 153.959 96.8435C154.292 96.6653 154.523 96.3058 154.652 95.765C154.797 95.1577 154.775 94.4262 154.586 93.5704L155.511 93.4328C155.621 93.8384 155.68 94.2672 155.689 94.7192C155.697 95.1756 155.65 95.6189 155.548 96.0488C155.34 96.9177 154.994 97.5144 154.509 97.8391C154.023 98.1682 153.354 98.2312 152.503 98.0281L147.529 96.8413L147.725 96.0234ZM149.098 93.7156C148.934 94.4027 148.993 94.9862 149.277 95.4662C149.56 95.9506 150.04 96.2738 150.718 96.4356L151.377 96.5927L151.594 95.4778C151.772 94.5927 151.786 93.926 151.635 93.4778C151.488 93.035 151.159 92.7528 150.649 92.6311C150.25 92.5359 149.918 92.5832 149.653 92.7728C149.386 92.9669 149.201 93.2812 149.098 93.7156Z" fill="#6F7279"/>
<path d="M146.723 104.558L147.221 105.006L147.843 105.598L151.561 109.435L150.984 110.757L144.13 107.767L144.531 106.846L150.202 109.32L149.893 109.036L149.093 108.254L145.518 104.584L145.898 103.713L151.033 103.842C151.689 103.865 152.192 103.903 152.542 103.956L146.871 101.483L147.276 100.555L154.13 103.545L153.576 104.817L148.436 104.716C147.899 104.695 147.327 104.642 146.723 104.558Z" fill="#6F7279"/>
<path d="M142.773 118.799C141.735 118.155 141.086 117.39 140.826 116.504C140.57 115.621 140.728 114.719 141.3 113.797C141.654 113.228 142.101 112.806 142.642 112.53C143.183 112.255 143.778 112.152 144.427 112.222C145.075 112.292 145.734 112.535 146.404 112.951C147.442 113.595 148.088 114.356 148.343 115.233C148.601 116.112 148.444 117.013 147.872 117.934C147.319 118.825 146.584 119.347 145.668 119.502C144.748 119.661 143.783 119.427 142.773 118.799ZM145.784 113.95C144.971 113.445 144.25 113.223 143.622 113.284C142.995 113.345 142.485 113.691 142.093 114.322C141.701 114.953 141.615 115.562 141.835 116.149C142.057 116.743 142.576 117.293 143.393 117.8C144.202 118.303 144.918 118.519 145.541 118.45C146.164 118.387 146.675 118.036 147.071 117.397C147.463 116.766 147.552 116.161 147.337 115.582C147.122 115.004 146.605 114.46 145.784 113.95Z" fill="#6F7279"/>
<path d="M138.935 127.578C138.555 127.271 138.355 126.928 138.335 126.548C138.315 126.174 138.43 125.763 138.681 125.315L138.633 125.277C138.164 125.718 137.727 125.962 137.32 126.009C136.911 126.058 136.509 125.924 136.116 125.606C135.574 125.168 135.317 124.63 135.347 123.991C135.374 123.357 135.697 122.656 136.316 121.891L138.392 119.324L144.217 124.034L142.15 126.591C140.981 128.037 139.909 128.366 138.935 127.578ZM136.888 124.771C137.203 125.026 137.529 125.091 137.866 124.964C138.203 124.844 138.595 124.508 139.042 123.955L140.336 122.355L138.417 120.803L137.106 122.425C136.284 123.442 136.211 124.224 136.888 124.771ZM139.546 126.648C139.829 126.877 140.118 126.929 140.413 126.804C140.708 126.685 141.035 126.404 141.393 125.962L142.739 124.298L141.096 122.97L139.888 124.463C139.447 125.009 139.203 125.448 139.158 125.78C139.112 126.112 139.241 126.402 139.546 126.648Z" fill="#6F7279"/>
<path d="M137.564 132.531L134.329 129.052L133.516 128.108L133.266 127.809L134.645 135.245L133.609 136.209L128.507 130.722L129.283 130.001L132.402 133.355L133.001 134.029L133.581 134.704L132.207 127.282L133.243 126.318L138.345 131.805L137.564 132.531Z" fill="#6F7279"/>
<path d="M126.094 141.301L128.052 139.855L124.177 134.609L125.09 133.935L128.964 139.181L130.9 137.751L131.477 138.532L126.671 142.081L126.094 141.301Z" fill="#6F7279"/>
<path d="M123.137 144.922L120.888 140.737L120.341 139.618L120.175 139.265L119.626 146.808L118.379 147.478L114.833 140.878L115.767 140.376L117.934 144.411L118.343 145.216L118.734 146.015L119.283 138.487L120.53 137.817L124.076 144.417L123.137 144.922Z" fill="#6F7279"/>
<path d="M107.194 144.863L108.283 144.541L110.406 151.726L104.375 153.509L102.251 146.324L103.353 145.998L105.197 152.239L109.039 151.104L107.194 144.863Z" fill="#6F7279"/>
<path d="M95.6341 148.015C96.1168 147.946 96.5715 147.971 96.9982 148.089C97.4211 148.212 97.7944 148.44 98.1181 148.771L98.1993 148.759C98.0831 148.334 97.9971 147.927 97.9414 147.539L97.5036 144.488L98.6268 144.326L100.169 155.072L99.2551 155.203L98.9539 154.21L98.8997 154.218C98.6693 154.665 98.3753 155.007 98.0177 155.242C97.6602 155.478 97.2333 155.631 96.7371 155.702C95.7537 155.843 94.9476 155.616 94.3188 155.02C93.6856 154.425 93.2819 153.521 93.1077 152.307C92.933 151.089 93.07 150.103 93.5187 149.348C93.9636 148.598 94.6687 148.154 95.6341 148.015ZM96.7626 154.725C97.5204 154.616 98.0384 154.328 98.3166 153.86C98.5947 153.392 98.6726 152.699 98.5502 151.782L98.5143 151.532C98.3648 150.49 98.084 149.768 97.6719 149.367C97.2604 148.97 96.6713 148.827 95.9044 148.937C95.2638 149.028 94.8003 149.36 94.5139 149.93C94.2229 150.501 94.1428 151.243 94.2735 152.154C94.4062 153.079 94.6906 153.761 95.1265 154.2C95.5586 154.644 96.104 154.819 96.7626 154.725Z" fill="#6F7279"/>
<path d="M82.8357 153.161C82.8404 151.939 83.1517 150.986 83.7696 150.3C84.3875 149.619 85.2387 149.28 86.3234 149.284C86.9933 149.287 87.5874 149.446 88.1057 149.763C88.624 150.079 89.0233 150.532 89.3036 151.121C89.5839 151.71 89.7225 152.399 89.7194 153.187C89.7147 154.409 89.4057 155.358 88.7924 156.034C88.1791 156.715 87.3302 157.054 86.2455 157.05C85.1974 157.046 84.367 156.694 83.7545 155.994C83.1374 155.295 82.8311 154.35 82.8357 153.161ZM88.5437 153.183C88.5474 152.226 88.3588 151.496 87.9779 150.993C87.597 150.49 87.0352 150.237 86.2923 150.234C85.5495 150.232 84.9857 150.478 84.601 150.973C84.2117 151.473 84.0152 152.204 84.0115 153.165C84.0078 154.118 84.1987 154.841 84.5842 155.334C84.9651 155.833 85.5315 156.083 86.2834 156.086C87.0263 156.089 87.5877 155.847 87.9679 155.361C88.348 154.875 88.5399 154.149 88.5437 153.183Z" fill="#6F7279"/>
<path d="M76.8726 149.153C77.9711 149.293 78.7963 149.739 79.3481 150.489C79.8955 151.239 80.0931 152.209 79.9412 153.397C79.788 154.595 79.3725 155.509 78.6947 156.139C78.0123 156.769 77.1739 157.02 76.1794 156.893C75.2482 156.774 74.5506 156.372 74.0868 155.688C73.6223 155.009 73.4543 154.167 73.5826 153.163L73.6736 152.451L78.7931 153.106C78.882 152.231 78.7474 151.54 78.3893 151.035C78.0267 150.529 77.4657 150.228 76.7063 150.131C75.9061 150.028 75.0937 150.095 74.2688 150.329L74.3971 149.326C74.8169 149.205 75.21 149.131 75.5763 149.104C75.9388 149.072 76.3709 149.089 76.8726 149.153ZM76.3135 155.952C76.9102 156.028 77.4119 155.895 77.8188 155.552C78.2211 155.208 78.4978 154.697 78.6489 154.018L74.7635 153.521C74.6728 154.231 74.7617 154.794 75.0301 155.209C75.298 155.629 75.7258 155.877 76.3135 155.952Z" fill="#6F7279"/>
<path d="M65.0597 154.969L63.8565 154.653L67.903 151.978L65.5033 147.339L66.7859 147.676L69.1271 152.215L70.0916 148.545L71.1891 148.834L69.2844 156.08L68.1869 155.791L69.1132 152.268L65.0597 154.969Z" fill="#6F7279"/>
<path d="M56.0481 151.182L58.3201 152.054L60.6569 145.966L61.7163 146.372L59.3796 152.461L61.626 153.323L61.2782 154.229L55.7003 152.088L56.0481 151.182Z" fill="#6F7279"/>
<path d="M44.842 143.458C43.6778 142.649 42.8722 142.567 42.4251 143.211C42.004 143.817 42.2651 144.448 43.2084 145.103C43.4966 145.303 43.7769 145.459 44.0491 145.57C44.3213 145.682 44.7029 145.791 45.1939 145.899L44.9988 146.887C44.1649 146.73 43.3717 146.39 42.6193 145.868C41.9119 145.376 41.4555 144.843 41.2502 144.268C41.0423 143.696 41.1126 143.16 41.4609 142.658C41.9392 141.969 42.6361 141.785 43.5516 142.104L43.5828 142.059C43.2073 141.593 43.0007 141.156 42.963 140.747C42.9226 140.341 43.0363 139.946 43.304 139.56C43.6991 138.991 44.2374 138.708 44.9187 138.709C45.5938 138.712 46.3356 138.994 47.1441 139.555C48.0313 140.171 48.624 140.78 48.9223 141.381L48.3297 142.234C47.8682 141.437 47.2875 140.795 46.5875 140.309C46.0484 139.935 45.5786 139.744 45.178 139.738C44.771 139.733 44.4467 139.904 44.2049 140.252C43.7084 140.967 44.0423 141.729 45.2064 142.537L46.0599 143.13L45.5101 143.922L44.842 143.458Z" fill="#6F7279"/>
<path d="M38.7288 133.534L38.1815 134.476L38.2221 134.513C38.814 134.415 39.3052 134.429 39.6956 134.554C40.0795 134.68 40.4777 134.929 40.8904 135.302C41.4417 135.8 41.7463 136.333 41.8043 136.901C41.8589 137.466 41.6494 138.011 41.176 138.535C40.1619 139.658 38.7325 139.435 36.8877 137.867L35.9165 137.046L35.605 137.391C35.211 137.827 35.0155 138.234 35.0186 138.611C35.0152 138.989 35.2198 139.364 35.6325 139.737C36.0958 140.155 36.7484 140.486 37.5901 140.731L37.2669 141.609C36.8586 141.51 36.4539 141.357 36.0528 141.148C35.6484 140.936 35.2821 140.682 34.9541 140.386C34.2911 139.787 33.9336 139.197 33.8814 138.616C33.8258 138.031 34.0913 137.414 34.6777 136.765L38.1048 132.97L38.7288 133.534ZM40.0953 135.846C39.571 135.372 39.0303 135.145 38.473 135.163C37.9124 135.179 37.3984 135.446 36.931 135.963L36.4775 136.465L37.3517 137.19C38.0428 137.771 38.6211 138.103 39.0867 138.186C39.5459 138.269 39.9511 138.116 40.3024 137.727C40.5773 137.423 40.6952 137.109 40.6561 136.785C40.6137 136.458 40.4267 136.145 40.0953 135.846Z" fill="#6F7279"/>
<path d="M31.8408 128.691L31.2099 128.917L30.3938 129.183L25.2523 130.638L24.3619 129.503L30.2451 124.886L30.8655 125.676L25.9986 129.496L26.395 129.358L27.4625 129.025L32.389 127.618L32.9756 128.365L30.427 132.824C30.0957 133.391 29.8238 133.816 29.6111 134.099L34.478 130.28L35.1026 131.076L29.2193 135.693L28.3626 134.601L30.889 130.124C31.1623 129.661 31.4796 129.183 31.8408 128.691Z" fill="#6F7279"/>
<path d="M21.2169 118.517C22.2753 117.908 23.2562 117.698 24.1595 117.888C25.0589 118.08 25.7793 118.646 26.3206 119.585C26.655 120.166 26.8156 120.76 26.8023 121.367C26.7891 121.974 26.5983 122.547 26.2299 123.085C25.8615 123.623 25.3357 124.089 24.6525 124.483C23.5941 125.092 22.6183 125.302 21.7251 125.112C20.828 124.924 20.1087 124.36 19.5674 123.42C19.0443 122.511 18.9313 121.617 19.2285 120.736C19.5234 119.85 20.1862 119.111 21.2169 118.517ZM24.0657 123.464C24.895 122.986 25.4313 122.456 25.6747 121.874C25.918 121.293 25.8543 120.68 25.4836 120.036C25.1129 119.392 24.6167 119.029 23.9952 118.945C23.3675 118.859 22.637 119.056 21.8037 119.536C20.9783 120.012 20.4491 120.54 20.2159 121.121C19.9765 121.701 20.0444 122.317 20.4197 122.968C20.7904 123.612 21.2815 123.976 21.8928 124.06C22.5042 124.145 23.2284 123.946 24.0657 123.464Z" fill="#6F7279"/>
<path d="M15.2352 110.818C15.6858 110.632 16.083 110.62 16.4269 110.784C16.7648 110.945 17.0706 111.242 17.3442 111.676L17.401 111.653C17.2368 111.03 17.2316 110.529 17.3852 110.15C17.5372 109.766 17.8468 109.478 18.3141 109.284C18.9583 109.017 19.5537 109.049 20.1002 109.381C20.645 109.707 21.1057 110.325 21.4824 111.235L22.7459 114.285L15.8239 117.152L14.5657 114.115C13.8542 112.397 14.0774 111.298 15.2352 110.818ZM18.6789 110.361C18.3042 110.517 18.0919 110.772 18.0421 111.128C17.9863 111.482 18.0944 111.987 18.3664 112.644L19.1538 114.545L21.4338 113.601L20.6359 111.674C20.1354 110.466 19.4831 110.028 18.6789 110.361ZM15.7601 111.8C15.4232 111.939 15.2394 112.168 15.2086 112.487C15.1718 112.803 15.2624 113.224 15.4804 113.75L16.2991 115.727L18.2507 114.919L17.5156 113.144C17.2471 112.496 16.9779 112.072 16.708 111.873C16.4381 111.674 16.1222 111.65 15.7601 111.8Z" fill="#6F7279"/>
<path d="M11.5306 107.288L16.1346 106.115L17.352 105.854L17.7347 105.778L10.5468 103.426L10.1974 102.055L17.4577 100.205L17.7193 101.232L13.281 102.362L12.4015 102.565L11.5319 102.752L18.7049 105.1L19.0542 106.472L11.7939 108.321L11.5306 107.288Z" fill="#6F7279"/>
<path d="M9.33434 93.1388L9.67075 95.549L16.1296 94.6476L16.2865 95.7714L9.82761 96.6729L10.1602 99.0561L9.19885 99.1902L8.37296 93.273L9.33434 93.1388Z" fill="#6F7279"/>
<path d="M7.53707 88.4863L12.2879 88.5229L13.5316 88.5804L13.9211 88.6039L7.56784 84.501L7.57877 83.086L15.0707 83.1439L15.0626 84.2034L10.4826 84.168L9.58045 84.1406L8.69207 84.0995L15.0317 88.1955L15.0208 89.6105L7.52884 89.5526L7.53707 88.4863Z" fill="#6F7279"/>
<path d="M15.1964 74.6828L14.9583 75.7923L7.63291 74.2204L8.95243 68.0713L16.2779 69.6433L16.0369 70.7661L9.67394 69.4007L8.83346 73.3174L15.1964 74.6828Z" fill="#6F7279"/>
<path d="M17.9222 63.0557C17.7526 63.5129 17.5139 63.9007 17.2062 64.2192C16.8959 64.5318 16.5179 64.7513 16.0725 64.8777L16.0439 64.9546C16.4731 65.0555 16.8715 65.1741 17.2389 65.3104L20.1295 66.3826L19.7348 67.4465L9.55702 63.6711L9.87798 62.8059L10.894 63.0151L10.9131 62.9638C10.6299 62.5477 10.4703 62.1263 10.4341 61.6998C10.3979 61.2732 10.467 60.8249 10.6413 60.3549C10.9869 59.4234 11.5715 58.8236 12.3951 58.5556C13.2204 58.2833 14.2077 58.3604 15.3571 58.7867C16.5108 59.2147 17.3122 59.806 17.7613 60.5608C18.2077 61.3097 18.2614 62.1413 17.9222 63.0557ZM11.488 60.8439C11.2217 61.5617 11.2278 62.1546 11.5063 62.6224C11.7848 63.0903 12.3562 63.4894 13.2204 63.8197L13.4575 63.9077C14.4445 64.2738 15.2127 64.3716 15.762 64.2011C16.3071 64.029 16.7143 63.5798 16.9838 62.8534C17.2088 62.2467 17.1391 61.6812 16.7745 61.1571C16.4115 60.6288 15.7985 60.2045 14.9354 59.8843C14.0594 59.5594 13.3244 59.4836 12.7303 59.657C12.1335 59.8244 11.7194 60.2201 11.488 60.8439Z" fill="#6F7279"/>
<path d="M19.4365 49.4647C20.5081 50.0506 21.1982 50.7786 21.5068 51.6486C21.8114 52.5164 21.7036 53.4261 21.1832 54.3777C20.8618 54.9655 20.4385 55.4119 19.9133 55.7168C19.3882 56.0218 18.7999 56.1572 18.1485 56.123C17.4971 56.0889 16.8256 55.8827 16.1338 55.5044C15.0622 54.9184 14.375 54.1947 14.0723 53.3331C13.7655 52.4693 13.8723 51.5616 14.3927 50.6099C14.8955 49.6903 15.6005 49.1278 16.5074 48.9226C17.4166 48.7133 18.3929 48.894 19.4365 49.4647ZM16.698 54.4728C17.5376 54.932 18.2692 55.1139 18.8927 55.0185C19.5162 54.9232 20.0062 54.5496 20.3626 53.8978C20.719 53.2461 20.7711 52.6331 20.5189 52.0589C20.2649 51.4785 19.7161 50.9576 18.8724 50.4963C18.0367 50.0393 17.31 49.8627 16.6924 49.9664C16.0728 50.064 15.5827 50.4426 15.2219 51.1024C14.8655 51.7541 14.8105 52.3629 15.0569 52.9288C15.3032 53.4946 15.8503 54.0093 16.698 54.4728Z" fill="#6F7279"/>
<path d="M25.6741 46.2951C25.026 47.193 24.2404 47.7051 23.3174 47.8313C22.3971 47.9539 21.451 47.6644 20.4792 46.9629C19.5 46.256 18.8955 45.4544 18.6659 44.5579C18.4388 43.6577 18.6187 42.8012 19.2056 41.9882C19.755 41.227 20.4411 40.8061 21.2637 40.7254C22.0826 40.6421 22.9022 40.8965 23.7226 41.4887L24.3046 41.9088L21.2838 46.0936C22.0103 46.5899 22.681 46.8014 23.2959 46.7282C23.9135 46.6513 24.4463 46.3024 24.8945 45.6817C25.3666 45.0276 25.6966 44.2823 25.8846 43.4456L26.705 44.0378C26.6107 44.4643 26.4877 44.8449 26.3361 45.1795C26.1909 45.513 25.9702 45.8849 25.6741 46.2951ZM19.968 42.5555C19.6159 43.0432 19.4934 43.5478 19.6004 44.0691C19.7102 44.5867 20.0272 45.0741 20.5515 45.5312L22.8441 42.3553C22.264 41.9365 21.7272 41.7457 21.2338 41.783C20.7367 41.8176 20.3147 42.0751 19.968 42.5555Z" fill="#6F7279"/>
<path d="M26.2269 33.0645L27.0774 32.1565L27.5063 36.9884L32.7278 37.0836L31.8213 38.0515L26.7157 37.9525L29.4847 40.5461L28.709 41.3743L23.2408 36.2526L24.0165 35.4244L26.6758 37.9152L26.2269 33.0645Z" fill="#6F7279"/>
<path d="M33.7099 27.0283L31.8629 28.6128L36.1092 33.5624L35.2479 34.3013L31.0016 29.3517L29.1753 30.9185L28.5433 30.1818L33.0778 26.2915L33.7099 27.0283Z" fill="#6F7279"/>
<path d="M45.7968 20.7593C47.0599 20.1164 47.5137 19.4457 47.1581 18.7471C46.8233 18.0892 46.1441 18.0206 45.1206 18.5416C44.8078 18.7008 44.538 18.8739 44.3111 19.061C44.0842 19.2481 43.807 19.5324 43.4795 19.9138L42.7015 19.2743C43.2348 18.6142 43.9096 18.0764 44.726 17.6609C45.4936 17.2702 46.1794 17.1206 46.7833 17.212C47.3852 17.2994 47.8247 17.6152 48.1017 18.1595C48.482 18.9068 48.3148 19.6081 47.6001 20.2634L47.6249 20.3121C48.2131 20.2019 48.6963 20.227 49.0745 20.3873C49.4507 20.5436 49.7452 20.8309 49.9581 21.2492C50.2723 21.8666 50.2675 22.475 49.9437 23.0745C49.6218 23.6679 49.0223 24.1878 48.145 24.6343C47.1824 25.1243 46.3658 25.3584 45.6951 25.3367L45.2238 24.4107C46.1448 24.3817 46.9851 24.1739 47.7446 23.7873C48.3294 23.4896 48.7194 23.1658 48.9146 22.8159C49.1118 22.4598 49.1143 22.093 48.922 21.7152C48.5272 20.9395 47.6982 20.8731 46.4351 21.516L45.5091 21.9873L45.0719 21.1283L45.7968 20.7593Z" fill="#6F7279"/>
<path d="M57.7431 19.9264L57.1747 18.9964L57.1231 19.0146C56.9274 19.5818 56.6816 20.0072 56.3856 20.2909C56.0923 20.5687 55.6836 20.8004 55.1595 20.9859C54.4592 21.2337 53.8455 21.2479 53.3182 21.0285C52.7952 20.8075 52.4159 20.3641 52.1802 19.6982C51.6754 18.2718 52.5514 17.1206 54.8083 16.2444L55.9933 15.7815L55.8382 15.3433C55.642 14.7891 55.3773 14.4236 55.0439 14.2466C54.7134 14.0639 54.286 14.0653 53.7619 14.2508C53.1733 14.4591 52.5713 14.8753 51.9558 15.4992L51.3375 14.7971C51.6185 14.4849 51.9463 14.2021 52.3207 13.9488C52.6994 13.6939 53.0971 13.4927 53.5139 13.3452C54.3559 13.0471 55.045 13.0135 55.5811 13.2443C56.1215 13.4737 56.5377 14.0007 56.8297 14.8256L58.5358 19.6459L57.7431 19.9264ZM55.0597 20.0278C55.7256 19.7921 56.1829 19.4247 56.4318 18.9257C56.6849 18.4252 56.6951 17.8463 56.4624 17.189L56.2366 16.5511L55.1829 16.9748C54.3429 17.3059 53.7757 17.6566 53.4812 18.0267C53.1896 18.3909 53.1312 18.8201 53.3061 19.3142C53.4429 19.7008 53.6631 19.954 53.9665 20.0739C54.2743 20.1921 54.6387 20.1768 55.0597 20.0278Z" fill="#6F7279"/>
<path d="M65.2275 16.1718L65.3318 15.5098L65.4888 14.6658L66.677 9.45645L68.0997 9.2188L69.3319 16.5951L68.3407 16.7607L67.3214 10.6587L67.2519 11.0723L67.0332 12.1692L65.9067 17.1673L64.9695 17.3238L62.2774 12.9498C61.9386 12.3872 61.6961 11.9449 61.5498 11.6228L62.5691 17.7248L61.5712 17.8915L60.3391 10.5152L61.7078 10.2865L64.4257 14.6493C64.7016 15.1115 64.9688 15.619 65.2275 16.1718Z" fill="#6F7279"/>
<path d="M79.2886 11.6965C79.3169 12.9175 79.0314 13.8791 78.4323 14.5813C77.8331 15.279 76.9913 15.6404 75.9069 15.6655C75.2372 15.681 74.639 15.5376 74.1123 15.2352C73.5856 14.9329 73.1743 14.4911 72.8782 13.9099C72.5821 13.3288 72.4249 12.6441 72.4066 11.8559C72.3784 10.6348 72.6616 9.67782 73.2564 8.98483C73.8511 8.28728 74.6906 7.92594 75.775 7.90082C76.8228 7.87655 77.6624 8.20583 78.2936 8.88866C78.9294 9.57139 79.261 10.5073 79.2886 11.6965ZM73.5821 11.8286C73.6043 12.7854 73.8125 13.5099 74.2068 14.0023C74.6012 14.4946 75.1696 14.7321 75.9123 14.7149C76.6549 14.6977 77.2118 14.4364 77.583 13.9309C77.9587 13.4207 78.1354 12.685 78.1131 11.7237C78.0911 10.7715 77.8807 10.0538 77.482 9.57073C77.0878 9.08298 76.5149 8.84781 75.7631 8.86522C75.0205 8.88243 74.4657 9.13916 74.0988 9.63542C73.732 10.1317 73.5597 10.8627 73.5821 11.8286Z" fill="#6F7279"/>
<path d="M88.8122 10.0949C88.7616 10.5799 88.5825 10.9346 88.2749 11.1591C87.9724 11.3795 87.5651 11.5064 87.0529 11.54L87.0465 11.6012C87.6721 11.7536 88.115 11.9877 88.3753 12.3036C88.6401 12.6199 88.7462 13.0297 88.6936 13.5328C88.6212 14.2263 88.3092 14.7344 87.7577 15.0571C87.2108 15.3803 86.4478 15.4907 85.4687 15.3884L82.1848 15.0453L82.9633 7.59371L86.2336 7.93536C88.0829 8.12856 88.9424 8.8484 88.8122 10.0949ZM87.5728 13.3401C87.615 12.9367 87.4914 12.6282 87.2021 12.4147C86.9178 12.1972 86.4222 12.0515 85.7151 11.9776L83.6686 11.7638L83.4122 14.2182L85.4858 14.4348C86.7867 14.5707 87.4824 14.2058 87.5728 13.3401ZM87.6994 10.0886C87.7373 9.72597 87.6236 9.4552 87.3582 9.27626C87.0978 9.09327 86.6843 8.97218 86.1177 8.91299L83.9896 8.69066L83.7702 10.7915L85.6807 10.9911C86.3787 11.0641 86.8795 11.0293 87.183 10.8869C87.4866 10.7445 87.6587 10.4784 87.6994 10.0886Z" fill="#6F7279"/>
<path d="M93.999 8.55378L92.8261 13.1577L92.4726 14.3515L92.3565 14.724L97.861 9.53766L99.2322 9.88699L97.3826 17.1473L96.3558 16.8857L97.4865 12.4474L97.7292 11.578L97.9817 10.7253L92.4872 15.9001L91.116 15.5508L92.9656 8.29051L93.999 8.55378Z" fill="#6F7279"/>
<path d="M107.236 13.2987L104.957 12.4437L102.666 18.5495L101.604 18.1509L103.895 12.0451L101.642 11.1998L101.983 10.2909L107.577 12.3898L107.236 13.2987Z" fill="#6F7279"/>
<path d="M112.088 13.8707L109.794 18.0307L109.151 19.097L108.944 19.4283L115.578 15.7957L116.817 16.4792L113.198 23.0395L112.27 22.5277L114.483 18.5173L114.936 17.7371L115.396 16.9755L108.775 20.5994L107.536 19.9159L111.155 13.3556L112.088 13.8707Z" fill="#6F7279"/>
<path d="M120.642 27.2086L119.78 26.4698L124.659 20.7834L129.432 24.8784L124.554 30.5647L123.682 29.817L127.919 24.8777L124.879 22.2694L120.642 27.2086Z" fill="#6F7279"/>
<path d="M129.577 35.1556C129.256 34.789 129.028 34.3946 128.894 33.9725C128.767 33.5508 128.753 33.114 128.854 32.662L128.8 32.6003C128.507 32.9299 128.213 33.2239 127.919 33.4823L125.601 35.5152L124.852 34.662L133.014 27.5043L133.622 28.1981L132.955 28.9924L132.991 29.0335C133.492 28.9823 133.938 29.0423 134.331 29.2133C134.723 29.3843 135.085 29.6583 135.415 30.0352C136.07 30.7821 136.32 31.5816 136.164 32.4336C136.011 33.2891 135.474 34.121 134.552 34.9293C133.627 35.7407 132.726 36.1644 131.848 36.2006C130.977 36.2371 130.22 35.8888 129.577 35.1556ZM134.583 30.5474C134.078 29.9718 133.553 29.6952 133.009 29.7177C132.465 29.7402 131.842 30.053 131.141 30.6562L130.951 30.8229C130.159 31.5171 129.708 32.1463 129.597 32.7106C129.489 33.2719 129.69 33.8438 130.201 34.4263C130.628 34.9128 131.159 35.1204 131.793 35.0489C132.43 34.9808 133.095 34.6433 133.787 34.0363C134.49 33.4203 134.906 32.8098 135.036 32.2047C135.172 31.6001 135.021 31.0476 134.583 30.5474Z" fill="#6F7279"/>
<path d="M140.754 42.8375C139.73 43.5044 138.763 43.7681 137.85 43.6284C136.942 43.4863 136.191 42.9609 135.599 42.0523C135.233 41.4911 135.04 40.907 135.02 40.3001C134.999 39.6931 135.158 39.1108 135.497 38.553C135.835 37.9953 136.334 37.5012 136.995 37.0706C138.018 36.4037 138.981 36.1406 139.883 36.2814C140.789 36.4197 141.538 36.9432 142.131 37.8518C142.703 38.7299 142.865 39.6171 142.617 40.5132C142.371 41.4132 141.75 42.1879 140.754 42.8375ZM137.637 38.0556C136.835 38.5782 136.329 39.1368 136.118 39.7312C135.907 40.3257 136.004 40.934 136.41 41.5563C136.815 42.1786 137.331 42.5145 137.956 42.564C138.588 42.6147 139.306 42.3776 140.112 41.8525C140.91 41.3324 141.409 40.7757 141.61 40.1824C141.817 39.5904 141.715 38.9795 141.304 38.3495C140.899 37.7272 140.388 37.3908 139.773 37.3402C139.158 37.2896 138.446 37.5281 137.637 38.0556Z" fill="#6F7279"/>
<path d="M140.802 50.2051C140.321 49.2073 140.246 48.2726 140.575 47.4011C140.906 46.5337 141.612 45.8401 142.692 45.3203C143.78 44.7966 144.773 44.6475 145.67 44.873C146.57 45.1026 147.237 45.6692 147.672 46.5726C148.079 47.4185 148.122 48.2223 147.8 48.9838C147.483 49.7434 146.869 50.3426 145.957 50.7813L145.31 51.0926L143.072 46.442C142.289 46.844 141.784 47.3327 141.555 47.9081C141.328 48.4876 141.381 49.1224 141.713 49.8122C142.062 50.5391 142.56 51.1846 143.206 51.7488L142.294 52.1875C141.964 51.9012 141.689 51.6117 141.467 51.3189C141.243 51.0322 141.021 50.661 140.802 50.2051ZM146.809 46.9723C146.549 46.4303 146.164 46.082 145.654 45.9276C145.147 45.7772 144.567 45.8235 143.916 46.0664L145.614 49.5959C146.259 49.2857 146.682 48.9048 146.885 48.4533C147.092 47.9998 147.066 47.5062 146.809 46.9723Z" fill="#6F7279"/>
<path d="M152.107 56.8698L152.5 58.0503L148.048 56.1246L145.476 60.6697L145.057 59.4114L147.577 54.9701L143.978 56.1684L143.619 55.0917L150.728 52.7253L151.086 53.8019L147.629 54.9528L152.107 56.8698Z" fill="#6F7279"/>
<path d="M153.846 66.3667L153.335 63.9873L146.959 65.3555L146.721 64.246L153.097 62.8777L152.592 60.5251L153.541 60.3214L154.795 66.163L153.846 66.3667Z" fill="#6F7279"/>
</svg>
