<svg width="24" height="24" viewBox="0 0 24 24" fill="none" xmlns="http://www.w3.org/2000/svg">
<path fill-rule="evenodd" clip-rule="evenodd" d="M22.2347 0.302818C22.6385 -0.100939 23.2931 -0.100939 23.6969 0.302818C24.1006 0.706574 24.1006 1.36119 23.6969 1.76495L13.4621 11.9997L23.6972 22.2348C24.1009 22.6386 24.1009 23.2932 23.6972 23.6969C23.2934 24.1007 22.6388 24.1007 22.2351 23.6969L12 13.4619L1.76494 23.6969C1.36119 24.1007 0.706572 24.1007 0.302816 23.6969C-0.100939 23.2932 -0.100939 22.6386 0.302816 22.2348L10.5379 11.9997L0.303139 1.76495C-0.100616 1.36119 -0.100616 0.706574 0.303139 0.302818C0.706895 -0.100939 1.36151 -0.100939 1.76527 0.302818L12 10.5376L22.2347 0.302818Z" fill="white"/>
</svg>
