<svg width="28" height="28" viewBox="0 0 28 28" fill="none" xmlns="http://www.w3.org/2000/svg">
<path d="M14.0003 0.666992C6.64833 0.666992 0.666992 6.64833 0.666992 14.0003C0.666992 20.671 5.59633 26.197 12.0003 27.167V17.3337H9.33366C8.96566 17.3337 8.66699 17.0357 8.66699 16.667V14.667C8.66699 14.2983 8.96566 14.0003 9.33366 14.0003H12.0003V11.579C12.0003 8.41166 13.6183 6.66699 16.5563 6.66699C17.747 6.66699 18.6863 6.74966 18.7257 6.75299C19.0697 6.78366 19.3337 7.07166 19.3337 7.41699V9.66699C19.3337 10.0357 19.035 10.3337 18.667 10.3337H17.3337C16.5983 10.3337 16.0003 10.9317 16.0003 11.667V14.0003H18.667C18.8583 14.0003 19.0403 14.0823 19.167 14.2257C19.2937 14.3697 19.3523 14.5603 19.329 14.7497L19.079 16.7497C19.037 17.083 18.753 17.3337 18.417 17.3337H16.0003V27.167C22.4043 26.197 27.3337 20.671 27.3337 14.0003C27.3337 6.64833 21.3523 0.666992 14.0003 0.666992Z" fill="#1C202C"/>
</svg>
