<svg width="17" height="17" viewBox="0 0 17 17" fill="none" xmlns="http://www.w3.org/2000/svg">
<path fill-rule="evenodd" clip-rule="evenodd" d="M8.5 1.62042C4.76146 1.62042 1.73077 4.65111 1.73077 8.38965C1.73077 12.1282 4.76146 15.1589 8.5 15.1589C12.2385 15.1589 15.2692 12.1282 15.2692 8.38965C15.2692 4.65111 12.2385 1.62042 8.5 1.62042ZM0.5 8.38965C0.5 3.97137 4.08172 0.389648 8.5 0.389648C12.9183 0.389648 16.5 3.97137 16.5 8.38965C16.5 12.8079 12.9183 16.3896 8.5 16.3896C4.08172 16.3896 0.5 12.8079 0.5 8.38965Z" fill="black"/>
<path fill-rule="evenodd" clip-rule="evenodd" d="M0.922302 5.92691C0.922302 5.58704 1.19782 5.31152 1.53769 5.31152H15.4608C15.8006 5.31152 16.0761 5.58704 16.0761 5.92691C16.0761 6.26678 15.8006 6.54229 15.4608 6.54229H1.53769C1.19782 6.54229 0.922302 6.26678 0.922302 5.92691Z" fill="black"/>
<path fill-rule="evenodd" clip-rule="evenodd" d="M0.922302 10.8527C0.922302 10.5128 1.19782 10.2373 1.53769 10.2373H15.4608C15.8006 10.2373 16.0761 10.5128 16.0761 10.8527C16.0761 11.1926 15.8006 11.4681 15.4608 11.4681H1.53769C1.19782 11.4681 0.922302 11.1926 0.922302 10.8527Z" fill="black"/>
<path fill-rule="evenodd" clip-rule="evenodd" d="M6.88899 3.5528C6.37215 4.7596 6.03747 6.46968 6.03747 8.39082C6.03747 10.312 6.37215 12.022 6.88899 13.2288C7.14787 13.8333 7.44034 14.2832 7.73376 14.573C8.02454 14.8602 8.28243 14.96 8.49901 14.96C8.71559 14.96 8.97348 14.8602 9.26426 14.573C9.55768 14.2832 9.85014 13.8333 10.109 13.2288C10.6259 12.022 10.9605 10.312 10.9605 8.39082C10.9605 6.46968 10.6259 4.7596 10.109 3.5528C9.85014 2.94829 9.55768 2.49843 9.26426 2.20865C8.97348 1.92147 8.71559 1.82159 8.49901 1.82159C8.28243 1.82159 8.02454 1.92147 7.73376 2.20865C7.44034 2.49843 7.14787 2.94829 6.88899 3.5528ZM6.86891 1.33296C7.31436 0.893022 7.86592 0.59082 8.49901 0.59082C9.1321 0.59082 9.68366 0.893022 10.1291 1.33296C10.5719 1.7703 10.9425 2.37261 11.2404 3.06826C11.8372 4.46178 12.1913 6.34401 12.1913 8.39082C12.1913 10.4376 11.8372 12.3199 11.2404 13.7134C10.9425 14.409 10.5719 15.0113 10.1291 15.4487C9.68366 15.8886 9.1321 16.1908 8.49901 16.1908C7.86592 16.1908 7.31436 15.8886 6.86891 15.4487C6.42609 15.0113 6.05553 14.409 5.75761 13.7134C5.16081 12.3199 4.8067 10.4376 4.8067 8.39082C4.8067 6.34401 5.16081 4.46178 5.75761 3.06826C6.05553 2.37261 6.42609 1.7703 6.86891 1.33296Z" fill="black"/>
</svg>
