<svg width="26" height="26" viewBox="0 0 26 26" fill="none" xmlns="http://www.w3.org/2000/svg">
<path d="M13 0.199951C5.93115 0.199951 0.199951 5.93115 0.199951 13C0.199951 20.0688 5.93115 25.8 13 25.8C20.0688 25.8 25.8 20.0688 25.8 13C25.8 5.93115 20.0688 0.199951 13 0.199951ZM8.19569 5.96315C9.09382 5.96315 9.69222 6.56155 9.69222 7.35942C9.69222 8.15728 9.09382 8.75568 8.09648 8.75568C7.19835 8.75675 6.59995 8.15728 6.59995 7.35942C6.59995 6.56155 7.19835 5.96315 8.19569 5.96315ZM9.79995 18.3333H6.59995V9.79995H9.79995V18.3333ZM20.4666 18.3333H17.4544V13.6698C17.4544 12.3802 16.6512 12.0826 16.3504 12.0826C16.0496 12.0826 15.0448 12.281 15.0448 13.6698C15.0448 13.8682 15.0448 18.3333 15.0448 18.3333H11.9333V9.79995H15.0458V10.9904C15.4469 10.296 16.2501 9.79995 17.7562 9.79995C19.2624 9.79995 20.4666 10.9904 20.4666 13.6698V18.3333Z" fill="#1C202C"/>
</svg>
