<svg class="icon-nav-blob" viewBox="0 0 88 89" fill="none" xmlns="http://www.w3.org/2000/svg">
  <path class="icon-nav-blob__path" d="M 90 45 C 90 53.8168 86.5881 64.3174 81.4058 71.4503 C 76.2234 78.5833 67.291 85.073 58.9058 87.7975 C 50.5205 90.5221 39.4795 90.5221 31.0942 87.7975 C 22.709 85.073 13.7766 78.5833 8.5942 71.4503 C 3.4119 64.3174 0 53.8168 0 45 C -0 36.1832 3.4119 25.6826 8.5942 18.5497 C 13.7766 11.4167 22.709 4.927 31.0942 2.2025 C 39.4795 -0.5221 50.5205 -0.5221 58.9058 2.2025 C 67.291 4.927 76.2234 11.4167 81.4058 18.5497 C 86.5881 25.6826 90 36.1832 90 45 C 90 53.8168 86.5881 64.3174 81.4058 71.4503" />
</svg>