<svg viewBox="0 0 37 24" fill="none" xmlns="http://www.w3.org/2000/svg">
<path d="M19.8338 14.2005V0.494629H35.2461V9.59247C35.2461 11.8374 35.0117 13.6491 34.5429 15.0276C34.0741 16.3666 33.1364 17.6072 31.73 18.7494C29.3078 20.6792 25.987 22.2546 21.7676 23.4756L20.4784 18.0996C22.9787 17.2331 24.2485 15.9334 24.2875 14.2005H19.8338ZM0.733276 14.2005V0.494629H16.2042V9.59247C16.2042 11.8374 15.9698 13.6491 15.501 15.0276C15.0322 16.3666 14.0945 17.6072 12.6881 18.7494C10.1877 20.7186 6.88649 22.294 2.78435 23.4756L1.4951 18.0996C3.95639 17.2331 5.20656 15.9334 5.24563 14.2005H0.733276Z" fill="#00AEC5"/>
</svg>
